<svg xmlns="http://www.w3.org/2000/svg" width="88" height="40" viewBox="0 0 88 40" fill="none" aria-hidden="true">
  <path fill="#111827" d="M44 2a2 2 0 0 0-2 2v6.2L16 14v4l24-8.8V30c0 3.9 3.1 7 7 7h6c3.9 0 7-3.1 7-7V9.2l24 8.8v-4L46 10.2V4a2 2 0 0 0-2-2h0Zm-2 12.3V30c0 1.7-1.3 3-3 3h-6c-1.7 0-3-1.3-3-3V14.3l6 2.2 6-2.2Zm-28 7.2-8 3v3.3l8-3V21.5Zm56 0v3.3l8 3V24.5l-8-3Z"/>
  <ellipse cx="20" cy="33" rx="7" ry="3" stroke="#111827" stroke-width="2" fill="none"/>
  <ellipse cx="68" cy="33" rx="7" ry="3" stroke="#111827" stroke-width="2" fill="none"/>
</svg>
